<svg id="katman_2" data-name="katman 2" xmlns="http://www.w3.org/2000/svg" viewBox="0 0 3000 3000"><defs><style>.cls-1{fill:#fff;}.cls-2{fill:#4c3c2f;}.cls-3,.cls-4,.cls-5{fill:none;stroke:#fff;stroke-miterlimit:10;}.cls-3{stroke-width:25px;}.cls-4{stroke-width:24px;}.cls-5{stroke-width:18px;}.cls-6{fill:#1d1d1b;}</style></defs><title>göz beyaz</title><path class="cls-1" d="M2202,1119c0,.09,0,.18,0,.27,1,.62,2.05,1.2,3.1,1.77C2204.09,1120.3,2203.05,1119.63,2202,1119Z"/><path class="cls-1" d="M2092.13,1920.21l1.53.51"/><path class="cls-2" d="M2092.12,1920.24l1.53.51a0,0,0,1,0,0-.06l-1.53-.51s-.06,0,0,.06Z"/><path class="cls-1" d="M1706.83,1548.62c-.43-10.25,10.87-13.81,19.13-11.51,7,1.92,12.49,6.87,18.29,10.89,5.42,3.75,11.18,6.89,17.83,7.65,6.06.69,13.77.58,19.53-1.63,8.33-3.21,12.07-14.84,6-21.91-5.3-6.19-17.74-6.39-21.14,1.91-.33.81.78,1.6,1.46,1.13,4.2-2.86,9.68-4.92,14.28-1.46s4.43,10.74.24,14.38-13.32,3.49-18.69,3.14c-6.83-.45-12.48-3.75-18-7.48-7.78-5.25-17.58-12.5-27.63-10.32-7,1.5-12.9,8-11.8,15.28C1706.38,1549,1706.84,1548.9,1706.83,1548.62Z"/><path class="cls-1" d="M1777.78,1442.79c3.88-1.61,6.48-3.93,9.62-6.66a164.3,164.3,0,0,1,13.7-10.85c8.07-5.65,16.79-10.51,26.51-12.5,9.54-2,20.28-2,29.55,1.23,9,3.16,15.38,10.21,23.24,15.23,14.88,9.5,35.4,8.22,47.8-5,11.35-12.06,14.27-32.74,3.67-46.23-13.06-16.62-39.69-10.33-50.63,5.16-1,1.44,1,3.31,2.4,2.39,11.73-7.51,35.25-14.23,42.79,2.38,6.66,14.68-2.51,32.52-17.72,36.64a28.15,28.15,0,0,1-22.58-3.57c-6.88-4.28-12.81-10-20.21-13.46-14.68-6.82-30.79-5.59-45.39.77a110.73,110.73,0,0,0-23.59,13.82c-7,5.37-16,11.59-19.87,19.7C1776.87,1442.3,1777.22,1443,1777.78,1442.79Z"/><path class="cls-1" d="M1815.58,1376.48c14.21-7.43,27.77-15.62,43.13-20.69a134.58,134.58,0,0,1,47.1-6.56c17.17.61,33.2,5.37,48.91,12.1,16.21,7,32.56,14.55,50.49,15.32,29.3,1.25,60.09-15.82,69.87-44.34,9-26.22-2.2-60.06-28.36-71.72-28.2-12.59-64.07,3.86-70.2,34.68-.83,4.2,4.68,5.52,6.27,1.73,8.53-20.35,37.5-32.63,57.79-23.46,21.84,9.87,28.68,40.15,18.05,60.4-12.77,24.35-42.78,33.36-68.27,26.79-16.31-4.19-31.22-12.37-47.21-17.53a130.63,130.63,0,0,0-43.5-6.13,134.16,134.16,0,0,0-47.94,10.66c-14.25,6-28.29,14.85-37.07,27.81C1814.23,1376.14,1815,1376.77,1815.58,1376.48Z"/><path class="cls-1" d="M1538.22,1629a148.29,148.29,0,0,0,3.23-23.06q.69,9.25,1.38,18.47C1541.33,1626,1539.8,1627.49,1538.22,1629Z"/><path class="cls-1" d="M1500.37,1703.91c3.18.83,6.38,1.62,9.58,2.38C1506.75,1705.53,1503.55,1704.73,1500.37,1703.91Z"/><path class="cls-1" d="M1465.59,1693.62q-2.43-.81-4.84-1.65l-2.64-.92-2.64-.94c-1.48,5.28,2.67,12.2,9.62,10.32,3.85-1,7.75-2.1,11.64-3.23l-1.13-.35-4.22-1.34C1469.45,1694.9,1467.52,1694.26,1465.59,1693.62Z"/><path class="cls-1" d="M1551,1732.94q-.45-6.06-.91-12.15h0c-.16-2.22-.33-4.43-.5-6.66-3.26-.5-6.5-1-9.74-1.62l-2.91-.53-2.51-.46c-.41-.08-.82-.15-1.22-.24-1.93-.36-3.85-.74-5.76-1.12l-.65-.14q-2.73-.55-5.44-1.14c-1.22-.25-2.43-.52-3.65-.8-1-.21-2-.43-2.92-.66A106.48,106.48,0,0,1,1551,1732.94Z"/><path class="cls-1" d="M1253.45,1558.83A244.86,244.86,0,0,1,1268,1581c2.6,4.49,7.39,4.67,10.85,2.62-1-.89-2-1.78-2.91-2.68Q1264.35,1570.23,1253.45,1558.83Z"/><path class="cls-1" d="M2157.28,1219.35a79.42,79.42,0,0,1,6.21-19.78Q2160.34,1209.44,2157.28,1219.35Z"/><path class="cls-1" d="M2193.88,1115.91c-.05.51-.09,1-.13,1.53l-.21.85a2.15,2.15,0,0,0-.43,1.07c-.13,1-.28,1.91-.45,2.85-.34,1.55-.71,3.11-1.14,4.65,0,.05,0,.09,0,.14a2,2,0,0,0-.05,1,1.87,1.87,0,0,0,1.21,1.36c-.12,1.09-.28,2.17-.47,3.25l-1.05-.74q-6-4.23-12-8.41-9.21-6.37-18.47-12.67-7.23-4.92-14.48-9.75h0c-53-35.41-107.65-68.48-164.35-97.58Q1957,990.67,1931.62,979a1134.89,1134.89,0,0,0-166.1-61.08h0l-3.57-1q-5.13-1.44-10.28-2.82l-1.37-.37h0l-1.17-.3-2.25-.61h0a1205.9,1205.9,0,0,0-319.13-39.58,1221.34,1221.34,0,0,0-161.57,12.23q-31.25,4.45-62.26,10.53a1184.52,1184.52,0,0,0-253,79.37L947,977.09c-57.13,25.61-111.12,56.4-163.28,90.22q-30.48,19.76-60.19,40.77h0l-2.93,2.06-1.42,1q-3.63,2.56-7.24,5.15-5.1,3.62-10.17,7.28l-2,1.49c-1.19.84-2.37,1.7-3.55,2.56l-4.27,3.09-6.29,4.59-1.9,1.39-3.16,2.32c-2.1,1.53-4.19,3.08-6.28,4.62l-2.17,1.6c-34.52,25.51-69.23,51.72-104.47,77.4h0c-1.78,1.3-3.54,2.6-5.32,3.89q-2.05,1.51-4.13,3-6.69,4.85-13.41,9.66l0,0c-2.26,1.63-4.52,3.24-6.79,4.85q-11.93,8.51-24,16.86l0,0q-11.28,7.83-22.65,15.5h0c-22.81,15.36-45.94,30.2-69.46,44.19h0q-4.35,2.61-8.72,5.15l0,0c-79.79,46.55-164.23,83.14-256.69,98.24,31.58,6.82,64.59,8.93,96.9,10.81h0c4.59.27,9.14.53,13.69.81l3.69.22h.05c10.2.68,10.22,16.63-.05,16-3.45-.21-38.06-1.14-73.55-4.91h-.09c-9.3-1-18.66-2.17-27.54-3.59-31.13-5-56.25-12.85-51.79-25.25,1.3-3.62,3.91-5.46,7.71-5.87a565.59,565.59,0,0,0,79.59-14.5c122-31.31,227.28-96.83,328.36-169.51,73-52.5,143.81-108.74,217.12-158.54l1-.68A1235.25,1235.25,0,0,1,962.16,954.22a1216.16,1216.16,0,0,1,400.48-94.6q31.2-1.93,62.38-2.27,30-.33,59.91.81a1215.65,1215.65,0,0,1,265.24,39.69q5.52,1.46,11,3a1203.86,1203.86,0,0,1,228.61,88.76q7.83,4,15.6,8.11c2.81,1.49,5.61,3,8.41,4.5l2.91,1.56q3.68,2,7.34,4l3,1.63,5.62,3.11,3.81,2.14c1.37.76,2.73,1.52,4.1,2.3s2.81,1.58,4.21,2.38l.76.43q4.4,2.5,8.78,5,2.65,1.53,5.3,3.07l2.87,1.68,4.38,2.57c2,1.15,3.93,2.31,5.89,3.49q2.45,1.44,4.88,2.91c2,1.17,3.94,2.36,5.9,3.55q2.31,1.38,4.59,2.78l.44.27q2.46,1.48,4.9,3,4.35,2.66,8.68,5.36l2,1.21q4.3,2.68,8.59,5.39,5.23,3.3,10.45,6.65l0,0,8.89,5.73,1.5,1,.24.15,8.48,5.54,1.68,1.11q3.91,2.57,7.82,5.17l2.07,1.39,1.42.94,6,4c1.13.76,2.26,1.52,3.38,2.29q5.14,3.46,10.27,7l1.2.82q2.24,1.52,4.45,3.05,6,4.09,11.9,8.26l1.54,1.07-.15.86A2.29,2.29,0,0,0,2193.88,1115.91Z"/><path class="cls-1" d="M2863.6,1764.73c1.27,0,2.52,0,3.73,0,7.65.17,15.39.43,23.07,1-56.54-44.85-106.93-97.3-155.23-151-43.94-48.85-87.21-98.12-131.91-146.1-27.36-29.38-55.27-58.27-84.19-86.31a2640.27,2640.27,0,0,0-247.6-211.84q-18.78-14.16-37.81-28c-1.31-1-2.61-1.91-3.92-2.85q-4.66-3.4-9.36-6.76l-4.64-3.35h0a.21.21,0,0,1-.08-.06l0,0q-7.48-5.34-15-10.63a145,145,0,0,1,.64,19.88.28.28,0,0,1,0,.09v.12l.06,0h0l6.54,4.64.21.15,7.05,5c.93.66,1.85,1.32,2.77,2,1.13.8,2.26,1.62,3.39,2.44l.08.06a2597.1,2597.1,0,0,1,238.55,195.15c49.22,45.38,96.12,92.86,141.66,141.69q41.78,44.79,82.27,90.91c44.47,50.4,89.33,100.9,138.37,146.91q18.56,17.41,38,33.88C2861.31,1762.84,2862.46,1763.78,2863.6,1764.73Z"/><path class="cls-1" d="M774.78,1595.44c0,3.65-2.19,7.27-6.49,7.86a9.81,9.81,0,0,1-1.24.08,9,9,0,0,1-1.35-.11c-4.93-.74-10.42-5.24-14.51-7.49l-1-.56q-7.7-4.21-15.42-8.36l-.43-.23q-16.05-8.61-32.3-16.88c-22-11.2-44.29-21.91-66.87-32q-7.14-3.18-14.32-6.26l-6.1-2.6c-2-.86-4.07-1.72-6.11-2.56s-4.08-1.7-6.12-2.53l-2.91-1.19c-1.21-.5-2.43-1-3.65-1.47-1.53-.62-3.06-1.24-4.59-1.84l-2.48-1c-1.61-.64-3.23-1.28-4.85-1.9-2-.81-4.11-1.6-6.17-2.39l-3-1.12q-2.75-1.07-5.51-2.08l-4.68-1.74c-2.27-.84-4.54-1.66-6.81-2.49Q547,1502.71,536,1499q-3.6-1.21-7.22-2.4c-2.41-.79-4.82-1.58-7.24-2.35a937.2,937.2,0,0,0-126-31.19,732.75,732.75,0,0,0-149.63-10.75c-5-.47-10-1-15.06-1.28-11.27-.75-22.5-2.37-33.71-4h-.09c-8.29-1.24-16.56-2.5-24.86-3.45l-2.09-.23a653.68,653.68,0,0,1,79.77-7.12h0q8.26-.24,16.52-.27h4.34q7.44,0,14.88.21c65.94,1.62,131.45,12.31,195.13,29.48q2.87.77,5.71,1.57h0q6.18,1.69,12.33,3.5h0c3.91,1.13,7.8,2.29,11.7,3.47q11.18,3.38,22.24,7l1.44.48q11.5,3.8,22.9,7.85,7.6,2.7,15.16,5.51,6.43,2.38,12.84,4.87l.69.27a.31.31,0,0,1,.12,0l3.74,1.45q5.55,2.16,11.09,4.39l4.46,1.81,5,2.05c1.66.68,3.33,1.37,5,2.07l3.91,1.63,2,.85q4,1.69,8,3.42l1.3.56,4.5,2q4.22,1.85,8.42,3.72,16.61,7.4,33,15.23l5.49,2.64c2.2,1,4.39,2.12,6.58,3.19l4.81,2.36q4.35,2.15,8.69,4.32l1.6.8c1.86.93,3.71,1.87,5.57,2.82q30.33,15.38,60.05,31.94l.85.48A7.74,7.74,0,0,1,774.78,1595.44Z"/><path class="cls-1" d="M1097.33,1811.34l-.13,0a5.25,5.25,0,0,1-.67-.22h0a8.2,8.2,0,0,1-2.81-1.88c1.12,1.11-1.56-.77-1.74-.88l-3.34-2.12-7.5-4.77c-2.21-1.41-4.43-2.82-6.64-4.25h0l-6.67-4.27-13.78-8.86-5.5-3.56h0l-9-5.79c-6.15-4-3.83-12.17,1.16-14.5a6.9,6.9,0,0,1,6.92.68l2.48,1.6q13.7,8.88,27.43,17.68,7.49,4.8,15,9.58c3.2,2,7.3,4,10.5,6.42a19.68,19.68,0,0,1,2,1.72C1111.17,1804,1104.07,1813.05,1097.33,1811.34Z"/><path class="cls-1" d="M1359.35,1940.49q-6.67-1.93-13.32-4-12.46-3.9-24.77-8.29l-1.09-.39c-7.57-2.72-6.61-12.85-1.13-15.36a6.58,6.58,0,0,1,4.11-.42,8.24,8.24,0,0,1,1.28.36q17.37,6.24,35.07,11.47c1.37.42,2.74.82,4.11,1.22a7.36,7.36,0,0,1,5.33,5.23C1370.39,1935.63,1366.25,1942.5,1359.35,1940.49Z"/><path class="cls-1" d="M2362.23,1752.45a4.91,4.91,0,0,0-2.15,1.33,34.41,34.41,0,0,0-7.41,11.06,4,4,0,0,0-.28,1.63q-7,2.38-13.94,4.84-19.17,6.76-38.2,13.93-12.36,4.65-24.67,9.45l-3.45,1.34q-7.23,2.82-14.46,5.69c-3.46,1.37-7.8,4-11.67,4.5a8.71,8.71,0,0,1-3.76-.25c-7.35-2.19-7-14.24,1-15.54h0a9.36,9.36,0,0,1,1.44-.11c-.59,0,4.37-2.3,5.1-2.59l7.23-2.87q6.78-2.67,13.57-5.32,13.58-5.28,27.21-10.42,27.74-10.41,55.77-19.95a7.27,7.27,0,0,1,.93-.26A6.74,6.74,0,0,1,2362.23,1752.45Z"/><path class="cls-1" d="M2860.18,1761.88a8.33,8.33,0,0,1-1.08-.46,440.22,440.22,0,0,0-100.34-35.8c-57.35-13.09-116.72-15.36-175.25-10.64-4.53.36-9.07.77-13.59,1.22-64.1,6.35-127.42,21-188.67,40.7l-.4.11a6.76,6.76,0,0,1-6.54-1.32c1.59-4.53,3.37-9,4.34-13.72a4.81,4.81,0,0,0,.11-1c2.86-.91,5.72-1.82,8.59-2.71a991.07,991.07,0,0,1,96.85-25,826.42,826.42,0,0,1,100.61-14.41,648.19,648.19,0,0,1,96-.63c48.34,3.41,96.08,13,141.35,29.79a442.67,442.67,0,0,1,45,19.6C2876,1752.06,2868.88,1765,2860.18,1761.88Z"/><path class="cls-1" d="M1542.11,1561.35c-7.75-20-19.8-38.14-26.93-58.36-4.26-12.08-6.94-25.93-4.76-38.68-5.08-2-9.81-5.35-14.18-8.64a76.11,76.11,0,0,0-1.55,31.26c2.89,20,12.34,38,21.34,55.77,9.85,19.5,18.34,39,17.51,61.25a130.31,130.31,0,0,1-2.59,20.91c-.81,4.06-1.78,8.09-2.85,12.08a69.1,69.1,0,0,1-3,9,43.29,43.29,0,0,1-10.16,15.18c-14.38,13.67-35.5,18.91-54.11,23.94a7.22,7.22,0,0,0-5.36,5.1c-1.48,5.28,2.67,12.2,9.62,10.32,3.85-1,7.75-2.1,11.64-3.23q3.06-.89,6.11-1.84a157.88,157.88,0,0,0,21.09-8.08,94.31,94.31,0,0,0,13.09-7.51c7.72-5.33,14.57-11.9,19.28-20.08s7.32-17.71,9.3-27c.25-1.16.49-2.32.73-3.48a145.28,145.28,0,0,0,2.93-24.31A109.34,109.34,0,0,0,1542.11,1561.35Z"/><path class="cls-1" d="M1764.63,905.14c-5.67-1.28-11.34-3-15.6-6.92l-.18.06c-4,1.68-6.83,5.29-5.58,9.84a8.91,8.91,0,0,0,5.31,5.58,24.52,24.52,0,0,1-5,1.73c-5.26,1.48-10.58,2.75-15.8,4.4a115.81,115.81,0,0,0-29.6,14c-16,10.74-30.81,25.48-34.27,44.93a1.77,1.77,0,0,1,1.31,0l1.71.56c2.73.65,5.34,1.59,8,2.5a1.89,1.89,0,0,1,.67.38l1.88.64a2.14,2.14,0,0,1,.74.44l.29.07a1.79,1.79,0,0,1,1.17.8l3-5.17a7.33,7.33,0,0,0,.2-7.45c3.07-5.8,7.71-10.89,12.43-15.22a95.62,95.62,0,0,1,30-18.67,179.59,179.59,0,0,1,18.3-5.59c5.4-1.44,11-2.79,15.56-6.14s7.68-8.38,7.31-14.24A16.75,16.75,0,0,0,1764.63,905.14Z"/><path class="cls-1" d="M1750.66,912.54c.18,0,.08,0-.14.13l-.06,0S1750.5,912.59,1750.66,912.54Z"/><path class="cls-1" d="M1454,1857.47a5.48,5.48,0,0,0-2.26,1.84c-3.63,4.91-6,10.42-11.06,14.12q-.81.58-1.68,1.11c1.84-10,3.57-20.1,4.74-30.29,2.31-20,2.51-40.3-2.52-59.88-6.52-25.4-21.1-47-44.76-59.11l-.13-.07c-16.4-8-34.43-12.51-51.62-18.52Q1320,1698,1296,1687.8a797.8,797.8,0,0,1-84.39-41.76c-13.84-7.91-27.41-16.26-40.77-24.94-12.54-8.15-25.19-16.69-39.17-22.21-15.43-6.08-30.92-6.06-47.22-6.79-13.92-.62-27.12-3.3-39.75-9.29a98.27,98.27,0,0,1-49.94-55.73,5.77,5.77,0,0,1-.36-2.27,4.44,4.44,0,0,1,.29-1.44,4.23,4.23,0,0,1,.4-.83,5,5,0,0,1,1.39-1.48,6.67,6.67,0,0,1,3.3-1.24,3.44,3.44,0,0,1,.46,0,6,6,0,0,1,6.1,4.09l.09.24a80.86,80.86,0,0,0,6.76,14.33,85.83,85.83,0,0,0,52.56,39.26c15.22,3.73,31,1.88,46.49,3.85,14.93,1.89,28.79,7.62,41.82,15s25.26,16,37.93,23.84q19.62,12.2,39.92,23.24a781.87,781.87,0,0,0,83.79,39.43q21.45,8.55,43.38,15.86c14.67,4.89,29.56,9.15,43.48,16l.4.22c1.62.83,3.19,1.71,4.73,2.62s2.8,1.72,4.16,2.63c0,0,0,0,0,0,20.43,13.73,33.93,35,40.48,59C1459.26,1804.9,1457.85,1831.45,1454,1857.47Z"/><path class="cls-1" d="M1358.64,1675.61l-83.3-50.21c-23.1-13.91-45.94-28.44-69.67-41.26-22.1-12-46-22.36-71.2-24.88-26.62-2.65-53.3,3.07-79.71-2.86a123.79,123.79,0,0,1-41.62-18,126.32,126.32,0,0,1-10.14-7.55,5.7,5.7,0,0,1-2.5.58h0c-4,0-5.88-3.14-5.78-6.21l-.21.21a2.43,2.43,0,0,0-.15-.67c-.38-1.23-1.4-3.53-1.64-4.45-1.51-5.79,5.76-10.09,10-5.84,18.68,18.54,43.67,30.49,70,32.56,13.9,1.09,27.83-.18,41.74-.45a160.31,160.31,0,0,1,38.83,3.68,185.48,185.48,0,0,1,29.78,9.66q7.14,2.94,14.09,6.33c8.4,4.06,16.61,8.51,24.67,13.11,48.21,27.52,95.31,57.18,142.86,85.84C1371.31,1669.23,1365.27,1679.61,1358.64,1675.61Z"/><path class="cls-1" d="M1278.81,1583.62c-3.46,2.05-8.25,1.87-10.85-2.62a244.86,244.86,0,0,0-14.51-22.17l0,0a295.1,295.1,0,0,0-22.85-27.4q-4.63-4.94-9.43-9.72l0,0,0,0q-6.45-6.44-13.16-12.62-5.71-5.3-11.56-10.45a55.88,55.88,0,0,1-5.28-4.71.49.49,0,0,0,0,.11c-17.57-15.25-35.68-29.85-53.39-44.94-28.7-24.47-55.88-50.57-77.7-81.37,4.93,11.92,10,23.76,15.16,35.59,9,20.87,18.92,42.28,34.84,58.89,16.63,17.36,39,27.47,57.48,42.54,17.15,14,31.22,33.43,31.58,56.27a7.33,7.33,0,0,1-1.94,5.35c-4.24,4.45-13.94,2.65-14.06-5.35,0-.33,0-.65,0-1-.94-24.74-22.77-42-41.74-54.58-10.14-6.72-20.43-13.14-30-20.64a126.81,126.81,0,0,1-24.3-25.48c-13.86-19-22.74-41.1-31.92-62.6-21.14-49.52-41-98.42-47.62-151.83-1.12-9,13.9-10.8,15.71-2.13a322.85,322.85,0,0,0,9.94,36.8c.9,2.69,2.07,5.37,2.85,8.1a57.44,57.44,0,0,0,2.49,6.6q3,7.56,6.34,14.92a318,318,0,0,0,51.12,77.89h0q8.34,9.45,17.39,18.33l1.26,1.24c14.72,14.36,30.35,27.74,46.11,40.93,7.23,6.06,14.5,12.07,21.73,18.11v0l1.65,1.37c4.11,3.45,8.21,6.9,12.28,10.39,1.93,1.65,4.36,3.3,6.12,5.33a.36.36,0,0,1,0-.09c6.91,6.91,14.74,13,21.83,19.77,7.27,6.9,14.34,14,21.09,21.43a286,286,0,0,1,36.4,49.06C1284.35,1577.36,1282.23,1581.58,1278.81,1583.62Z"/><path class="cls-1" d="M1113.34,1405.36a7.21,7.21,0,0,1-2.17,1c-4.55,1.25-8.18-1.6-9.84-5.58q-2.86-6.84-5.38-13.79h0c-8-22.06-13.65-44.92-17.88-68-9.08-49.55-12-100-21.1-149.53-8.92-48.78-23.14-95.72-53.9-135.84-2.46-3.21-.74-8.09,2.06-10.32a8.06,8.06,0,0,1,10.51.62,304.15,304.15,0,0,1,60,75.23h0a306.16,306.16,0,0,1,33,87.72h0a299.09,299.09,0,0,1,6.34,57.78,7.15,7.15,0,0,1-3.69,6.67h0c-4.7,2.6-12.23.37-12.31-6.68a279.12,279.12,0,0,0-5.2-51,292,292,0,0,0-40.23-100.12q.9,2.43,1.76,4.87c33.56,95.19,21.91,203.43,61.51,298.15C1118.1,1399.77,1116.12,1403.49,1113.34,1405.36Z"/><path class="cls-1" d="M1143.37,1042.1c-2,6.07-8.7,6.74-12.73,4a6.87,6.87,0,0,1-2.69-8.27c6.39-19.55-13.69-33.13-28.28-41.14q-8.52-4.68-17.09-9.26a125.28,125.28,0,0,1,15.08,92.67c-3,12.48-14,32-4,43.82,3.3,3.9,2.15,8.68-.65,11.51s-7.32,3.75-10.67-.19c-9.06-10.69-9.42-23.46-6.73-36.09h0c.74-3.45,1.7-6.9,2.78-10.29,4.66-14.66,7.28-28.92,6.18-44.37-2.16-30-17.33-59.77-41.48-78-8-6.08-1.24-18.8,8.08-13.82,21.27,11.38,43.37,21.86,63.93,34.48,10.64,6.54,20.86,16,26.23,27.25h0A36.46,36.46,0,0,1,1143.37,1042.1Z"/><path class="cls-1" d="M1464.19,1820.4a93.94,93.94,0,0,1-7.24,33.71,51.26,51.26,0,0,1-3.44,6.58h0a54.52,54.52,0,0,1-14.85,15.77,65.37,65.37,0,0,1-23.62,10.36c-40.42,9.06-75.83-14.53-114.15-22.29-45-9.12-90.9,4.09-134.57,14q-9,2-18,3.82l-3.18.61h0c-25.93,4.91-52.29,7.93-79,7.46q-12.06-.21-24.21-1.42-12.91-1.3-25.64-3.61c24.6,7.6,50,12.58,75.32,16.78q7.76,1.29,15.51,2.51c15.93,2.53,31.89,4.92,47.84,7.3q14.22,2.12,28.44,4.26c5.45.83,10.89,1.7,16.35,2.53,10.91,1.68,21.85,3.23,32.85,4,16.42,1.17,32.25-.35,48.36-3.54,12.67-2.51,25.3-5.33,38.14-6.8,1.37-.16,2.73-.3,4.11-.42s2.62-.22,3.93-.31a188.55,188.55,0,0,1,44.68,2.91l.3.05c1.16.2,2.33.42,3.48.64h0c10.12,1.93,5.81,17.34-4.26,15.42l-2.39-.44q-7.15-1.27-14.38-2a162.55,162.55,0,0,0-33.3-.09q-2.29.22-4.59.54c-17.88,2.42-35.31,7.34-53.24,9.49-33.16,4-67.12-3.94-99.79-8.9-30.26-4.59-60.62-8.77-90.74-14.2-54.14-9.77-108.87-25.41-151.19-62.23-7.21-6.28,2-16.48,9.7-12.57a316.13,316.13,0,0,0,171.95,33.06q6.08-.56,12.12-1.36c10.21-1.36,20-3.18,29.82-5.22h0c10.29-2.15,20.53-4.56,31.08-7,6.47-1.5,13-3,19.5-4.42,27-5.89,54.48-10.63,81.95-9.5A177.64,177.64,0,0,1,1299,1848c.29,0,.58.09.87.15,1.23.2,2.46.42,3.68.66h0l.36.07c.42.07.83.16,1.25.24,3.19.64,6.38,1.43,9.57,2.31l1.09.31,2.65.77c30.47,9.15,60.88,26.24,93,18.75,14.27-3.33,26.54-11.63,31.83-25.74q.24-.63.45-1.26c6.65-18.81,5.35-40.63.66-59.68a1.09,1.09,0,0,1-.05-.17,124,124,0,0,0-32.73-57.25c-.62-.61-1.25-1.22-1.89-1.82a7,7,0,0,1-2.38-6.25c1.49.4,3,.82,4.46,1.28,0,0,0,0,0,0a57.55,57.55,0,0,1,8.14,3.1c5.72,2.74,10.17,7,15.26,10.72a34.69,34.69,0,0,1,4.16,3.56c1.83,1.81,3.49,3.78,5.13,5.76,1.32,2.23,2.59,4.51,3.78,6.81s2.21,4.4,3.23,6.64a142.62,142.62,0,0,1,7.73,21.31c.15.52.29,1,.43,1.57a1.71,1.71,0,0,1,.09.3c.35,1.4.68,2.82,1,4.25h0q.71,3.16,1.27,6.39c.76,4.29,1.35,8.64,1.73,13A129,129,0,0,1,1464.19,1820.4Z"/><path class="cls-1" d="M1318.45,1852.5a11,11,0,0,1-1.75,5.46,9.27,9.27,0,0,1-11.31,3.56c-5-2-7.35-8.28-5.75-12.86l-.67-.67c-1.16-1.15-2.32-2.19-2.94-2.8a66.36,66.36,0,0,0-9-7.39,90.78,90.78,0,0,0-21.58-10.73c-17-5.85-34.8-7.37-52.67-7.57-20.28-.23-40.55,1-60.81-.3-10.21-.66-20.38-1.84-30.49-3.39-4.9-.75-9.8-1.61-14.67-2.55l-.29-.06c-2.72-.54-6.25-.8-9.19-1.86l-.13,0a2.87,2.87,0,0,1-.37-.15l-.3-.07h0a493,493,0,0,1-63.64-19.29c-37.48-14-73.58-31.37-109.5-48.93-4.76-2.33-9.54-4.66-14.31-7-.75-.36-1.49-.73-2.23-1.11q-3.52-1.77-7-3.58,8.34,7.86,16.91,15.48h0q16.32,14.46,33.55,27.85,16.44,12.77,33.76,24.35l.05,0q12.07,8,24.56,15.44,3.09,1.83,6.21,3.62A444.08,444.08,0,0,0,1078,1848q10.77,4.07,21.74,7.53,5.76,1.82,11.59,3.46,9.23,2.6,18.57,4.73c2.61.59,5.21,1.15,7.83,1.69,1.57.32,3.13.63,4.7.93.08,0,2.1.26,2.87.43h0c.39.09.44.16-.25.16a9,9,0,0,1,1.4.11h0c7.78,1.22,8.37,12.51,1.79,15.28a8.08,8.08,0,0,1-3.18.61h0c-6.29,0-13.28-2.39-19.41-3.78q-10.12-2.31-20.11-5.16l-2.18-.64q-18.43-5.39-36.31-12.53a497,497,0,0,1-88.21-46.28c-55-36-103.77-81.79-146.9-131-6.73-7.69,4.2-18.88,11.32-11.32,14,14.86,30.68,26.38,48.39,36.38,2,1.15,4.1,2.29,6.16,3.41,3.64,2,7.3,3.9,11,5.79,1.48.76,3,1.52,4.46,2.26l3.14,1.58,2.29,1.14,3.88,1.91h0c6.32,3.11,12.68,6.17,19,9.25,14.43,7,28.9,14,43.51,20.61q4.08,1.86,8.17,3.69h0c.73.31,1.44.64,2.17,1,14.08,6.24,28.32,12.14,42.76,17.51q5.15,1.9,10.31,3.72h0l1.85.65,4.52,1.54c7.57,2.55,15.2,4.94,22.89,7.12l.23.07q7.17,2,14.41,3.82c2.81.69,6.5,1,9.47,2.23l1.14.24a329.07,329.07,0,0,0,64.4,7.64c10.87.16,21.82-.09,32.76-.15h0c4.11,0,8.21,0,12.3,0l2.08,0h0c21.94.42,43.64,2.64,64.29,11.51,14,6,29.72,16,37.59,29.55A14.05,14.05,0,0,1,1318.45,1852.5Z"/><path class="cls-1" d="M1054.89,1782.68a7.22,7.22,0,0,1-.87,1.37c-3.52,4.35-12.14,4.55-14.3-2.52-.49-1.59-1-3.18-1.52-4.76a247.63,247.63,0,0,0-54.1-90.83,262.88,262.88,0,0,0-77.65-57.45c-31.67-15.35-65.66-22.65-100.7-24.32-12.48-.6-25-.74-37.46-.87l-2.59,0c-27.87-.29-55.7-.64-83.22-5.8a487.37,487.37,0,0,0,49.38,17.93c18.28,5.49,36.83,8.82,55.45,12.12h0c8.82,1.56,17.66,3.12,26.49,4.91,25.84,5.21,50.09,14.73,69.69,32.79a123.62,123.62,0,0,1,34.71,56l.45,1.58c.1.33.19.67.28,1,.21.78.41,1.57.61,2.35a7.71,7.71,0,0,1-.61,5.65,8.83,8.83,0,0,1-9.9,4,6.76,6.76,0,0,1-2.23-1.11,7.42,7.42,0,0,1-2.68-4.27,109.38,109.38,0,0,0-6.34-18.38,106.51,106.51,0,0,0-35.07-43.26c-21.41-15.25-47.11-20.21-72.56-24.38-27.19-4.46-53.72-10.14-79.81-19.14l-4.93-1.73-4.91-1.78q-2.55-.94-5.07-1.9c-1.57-.59-3.13-1.2-4.69-1.81s-2.92-1.14-4.38-1.73l-1.28-.52-3.17-1.28-1.66-.69-3.58-1.49q-9.84-4.14-19.52-8.6l-4.74-2.19q-6.65-3.1-13.25-6.34-14.51-7.1-28.77-14.64l-4.06-2.14-5.17-2.76-4.6-2.47-5.11-2.76-8.65-4.72-4.58-2.51q-9.15-5-18.26-10.09c-9.18-5.09-1.11-18,8.08-13.82q7.71,3.5,15.47,7,3.76,1.7,7.56,3.37l1.41.62c2.2,1,4.41,1.94,6.63,2.9,1.27.56,2.55,1.1,3.82,1.65,3.38,1.44,6.76,2.87,10.16,4.26q2,.84,4,1.65l2.71,1.08c.85.35,1.7.68,2.55,1l3.19,1.24c1.07.42,2.14.83,3.22,1.23l1.32.5.61.22h0l3.24,1.19,2.11.76,2.11.75,2.11.74c1.41.5,2.82,1,4.23,1.45s2.61.87,3.92,1.29l.33.11q2,.65,4,1.26,2.31.72,4.63,1.4c1.4.42,2.81.82,4.22,1.22l.55.15,3.76,1,3.39.88,1.63.41c2.66.66,5.32,1.28,8,1.86l2.18.47,3.54.71,2.3.44q3.91.74,7.86,1.33c1.24.2,2.48.38,3.72.55.77.1,1.55.21,2.33.3l2.34.29c10.47,1.23,21,1.88,31.49,2.24,10.73.38,21.48.45,32.23.52h2.1c21.57.15,43.13.39,64.56,3.13A261.62,261.62,0,0,1,930,1622.83c54.5,31,98.08,80.92,120.12,139.65q2.28,6.07,4.24,12.27c.27.84.53,1.68.79,2.52A7.33,7.33,0,0,1,1054.89,1782.68Z"/><path class="cls-1" d="M1596.58,1895.49c-.23,2.44-.38,4.9-.58,7.37a84,84,0,0,1-1.47,11.48c-1.29,6-3.85,11.82-6.55,17.32a137.05,137.05,0,0,1-17.92,26.85c-.68.83-1.38,1.65-2.08,2.46-.41.48-.82,1-1.24,1.43-2.46,2.81-5,5.53-7.61,8.16-31.91,32.23-73.94,51.76-109.43,79.62a275.09,275.09,0,0,0-50.23,52,331.6,331.6,0,0,0-19.46,29.36c-6.2,10.49-12.76,21.37-17.46,32.63-2.28,5.45-10,6.33-12,0a192,192,0,0,1-6.38-84.32,218.56,218.56,0,0,1,31.47-85.28,225.07,225.07,0,0,1,23.57-31.17q4.44-4.92,9.16-9.56c15.82-15.58,34.42-29.71,54.8-38.74,10.37-4.59,21-8.09,31.7-11.65,7.53-2.5,18.28-6.94,20.68-15.33a2.83,2.83,0,0,1,5.42,0c3.33,11.17-4.5,19.44-13.5,24.73-10,5.88-21,9.81-31.15,15.58-38.18,21.83-71,51.83-91.55,91.11-19.42,37.14-26.81,80.49-24.12,122.39,3.21-6,6.47-12,10-17.8a400.63,400.63,0,0,1,22.6-33.29,283.32,283.32,0,0,1,48.86-50.7c20-15.89,41.76-29.07,62.9-43.27,19.19-12.89,37.62-26.89,52.81-44.45a137.87,137.87,0,0,0,8.68-11.12,145.05,145.05,0,0,0,9.94-16.35c2.6-5,4.72-10.13,7-15.24,1.3-2.9,2.54-5.61,3.57-8.42a48.4,48.4,0,0,0,1.93-6.8C1589.82,1890.19,1597,1891.16,1596.58,1895.49Z"/><path class="cls-1" d="M1670,2054.32c-.57,33.68-3.55,67.38-10.45,100.39-1.92,9.19-15.39,6.51-15.71-2.13-1.39-37.18-2.86-75.14-16.57-110.22-5.69-14.57-13.75-28.58-24.29-40.19-9.73-10.71-21.43-18.83-33.87-25.91q-4.11-2.34-8.31-4.55a8.55,8.55,0,0,1-1.68-1.15c-6-5.27.62-16.06,8.58-13.19a9.24,9.24,0,0,1,1.18.52l1.17.62c14.3,7.63,28.21,16.31,39.81,27.73,25.31,24.93,37.32,57.14,43.38,91,1.35-25.9,1.09-51.88,0-77.77-.7-15.85-2-31.71-6-47.13a162.74,162.74,0,0,0-17-40.84c-5.16-9,8.67-17,13.82-8.08a177,177,0,0,1,19.9,50.14c.89,4.05,1.63,8.13,2.25,12.24q.49,3.26.89,6.54c1.25,10.28,1.86,20.64,2.26,31C1670,2020.33,1670.3,2037.33,1670,2054.32Z"/><path class="cls-1" d="M1596.05,1902.82c.82-4.82,1.49-9.52.65-14.3-12-7.92-19-22.09-18.57-36.36.23-8.67,3.93-16.69,7.35-24.5,4-9.07,7.37-18,8.18-27.92,2.59-31.76-15-63.47-38.2-84.72q-4.2-3.84-8.61-7.21a117,117,0,0,0-42.92-20.53,124,124,0,0,0-13.52-2.56c-4.29-.57-8,4.09-8,8a7.86,7.86,0,0,0,.43,2.64c1.09,3.14,4.14,4.91,7.57,5.36a94.61,94.61,0,0,1,24.34,6.69h0a107.91,107.91,0,0,1,53.77,50.83c7.66,15.43,12.34,34.44,7,51.29-2.81,8.94-7.52,17.16-10.47,26.06a55.73,55.73,0,0,0-2.66,23.63,59.23,59.23,0,0,0,24.59,42q.8.57,1.62,1.11a6.8,6.8,0,0,0,7.34.49Z"/><path class="cls-1" d="M2221.16,1952.59c-38.08-18.24-80.44-27-122.57-27.42a293.31,293.31,0,0,0-110.39,19.91c-32.69,12.88-62.67,31.44-94.21,46.74-5.07,2.47-10.18,4.85-15.35,7.1a309,309,0,0,1-31.3,11.8h0q-7,2.19-14.07,4c-23.91,6-48.6,8.09-73.17,3.73a168.44,168.44,0,0,1-25.1-6.55c-.91-.3-1.81-.61-2.72-.95a201.53,201.53,0,0,1-25.39-11.17c-14.47-7.54-27.09-17.34-39.76-27.36l-5.75-4.54c-2-1.55.61-4.79,2.65-3.44.73.49,1.47,1,2.21,1.44,8.07,5.17,16.53,9.61,24.93,14.25,9.32,5.14,18.95,9.84,28.72,14.05,20,8.58,41.33,13.76,63.09,14.07,36.67.53,69.8-11.23,101.93-26.48,41.19-19.57,80.76-44.89,124.08-57.46a313.29,313.29,0,0,1,129-9.2q-8.25-2.86-16.6-5.46c-31.41-9.74-64.28-17.92-97.24-19.61-33.86-1.74-66.43,6.58-99.6,11.88-28.16,4.5-56.89,7.28-85.37,4.49a195,195,0,0,1-26-4.14,124,124,0,0,1-13.64-4,99.09,99.09,0,0,1-33.54-20.36c-2.57-2.32-1.22-5.81,1.24-7.13a4.17,4.17,0,0,1,4.21.06,132,132,0,0,0,19.82,9.43h0l3.06,1.14c6,2.18,12.21,4,18.3,5.64a190.07,190.07,0,0,0,44.62,5.7c3.39.07,6.77.07,10.15,0,7.63-.12,15.24-.52,22.83-1.14,17.81-1.46,35.51-4.15,53.14-7.3,16.87-3,33.78-6,50.89-7.4a238.19,238.19,0,0,1,50.84,1.71,466.94,466.94,0,0,1,74.42,16.52l2.44.75a554.21,554.21,0,0,1,105.59,45.82C2234.71,1945.72,2228.39,1956.06,2221.16,1952.59Z"/><path class="cls-1" d="M2369.16,1858.55a163.18,163.18,0,0,0-55.73-18.14c-34.39-4.82-69.67.17-102.4,11.28-16.66,5.66-32.35,13.26-47.87,21.48-7.86,4.16-15.58,8.63-23.18,13.24-5.82,3.52-12.06,6.21-18,9.46-1.56.84-3.1,1.72-4.61,2.67a.44.44,0,0,1-.53-.69c.91-.9,1.81-1.82,2.7-2.73,6.34-6.51,12.35-13.15,19.61-18.71a225.29,225.29,0,0,1,25.82-17.25c32-18.1,67.09-30.58,103.87-33.58a211.29,211.29,0,0,1,56.2,2.94,205.56,205.56,0,0,0-36.33-14.53,208.22,208.22,0,0,0-42.67-7.77c-1.25-.1-2.51-.18-3.76-.25a203.94,203.94,0,0,0-32.68.75c-28.88,3-56.54,13.26-83.27,24.09-27.89,11.3-55.5,23.71-84.76,31.13a210.24,210.24,0,0,1-67.62,6.09q-6.86-.49-13.72-1.46-6.53-.91-13.07-2.24a3.29,3.29,0,0,1-.37-.1h0c-2.55-.9-1.64-5,1.08-5q7.71-.26,15.46-.76h0c31.45-2.06,63.23-7.37,93-17,56.59-18.37,108.94-50,169.92-51.26,5.66-.12,11.34,0,17,.31h0a224.87,224.87,0,0,1,57,10.83q7.92,2.6,15.6,5.78a215,215,0,0,1,19.71,9.33c1,.53,2,1.07,2.95,1.63h0a201.2,201.2,0,0,1,39.69,28.83C2384.57,1852.8,2376.39,1862.49,2369.16,1858.55Z"/><path class="cls-1" d="M1972.76,1870.56c-4.58,0-8.29-2.62-12.57-4l-.09,0a49.66,49.66,0,0,0-13.35-2.31h0c-.25,0-.51,0-.77,0a49.55,49.55,0,0,0-27.24,7.29c-9.45,5.66-18.21,12.63-27.13,19.07-.46.33-.93.68-1.39,1-8.23,6.15-17,14.27-27.6,14.78-1.65.08-3.3-1.84-2.65-3.48a26.5,26.5,0,0,1,7.42-10.16c1.29-1.15,2.67-2.23,4.11-3.29,5.6-4.1,11.31-8.07,17-12.1,9.74-6.95,19.3-14.53,30.36-19.31a53,53,0,0,1,31.64-3.71,58.4,58.4,0,0,1,12.83,4.1h0c4.79,2.25,9,5.38,10.62,9.61.09.23.17.47.24.71A1.45,1.45,0,0,1,1972.76,1870.56Z"/><path class="cls-1" d="M2056.57,1669.56c-2.29,1.21-4.56,2.49-6.85,3.71A48.37,48.37,0,0,1,2038,1678a60.33,60.33,0,0,1-11.26,1.17c-35.72-7.4-72.12-11.26-108.34-7.89a75.73,75.73,0,0,0-17.82-1.89c-3.88.09-7.76.2-11.64.24a16.36,16.36,0,0,0-5.16.51c-1.94-4.14-.83-9.56,4.88-10.66a297.15,297.15,0,0,1,36.88-4.78q9.89-.68,19.8-.67,3.29,0,6.57.06c29.61.55,58.86,4.93,87.72,11.42Q2048.13,1667.43,2056.57,1669.56Z"/><path class="cls-1" d="M1890.62,1725c-6.32.89-12.64,1.8-18.95,2.77l-3.05.47c-14.5,2.26-29.11,4.5-43.12,9-13,4.19-25,10.74-34.27,21-9.39,10.43-15.23,23.7-19.3,37-4.56,14.86-8.74,31.65-4.52,47a34.63,34.63,0,0,0,1.18,3.52,13.48,13.48,0,0,0,1.81,7.56,18.86,18.86,0,0,0,1.15,2.81c.48,1,1,1.85,1.32,2.62a29.35,29.35,0,0,0,3,5.13,26.67,26.67,0,0,0,2.74,4.68,35.49,35.49,0,0,0,10.79,9.47c.62.74,1.25,1.46,1.88,2.17h0l.17.2a9.67,9.67,0,0,1-1.2,0,40.36,40.36,0,0,1-23-9.69,48.33,48.33,0,0,1-13.18-18.38,58.69,58.69,0,0,1-4.24-20.32h0c-.5-12.78,2.34-25.9,5.79-37.93,4.31-15,10.51-29.66,20.12-42.07,9.91-12.8,23-21.57,38-27.51,14.43-5.74,29.85-8.41,45.13-10.84,3.45-.55,6.91-1.07,10.36-1.6a35.51,35.51,0,0,1,14.06,5.09,20.15,20.15,0,0,1,4.06,4A49.57,49.57,0,0,0,1890.62,1725Z"/><path class="cls-1" d="M2141.24,1711.2q-58.86-1.64-117.73,1.24-52.38,2.6-104.5,8.83l-.85.11c-5.56.66-11.1,1.38-16.64,2.11a24.35,24.35,0,0,0-6.44-8.71,15.36,15.36,0,0,0-1.71-1.23c-.07-.16-.14-.32-.2-.48-.5-1.2-.9-2.45-1.35-3.67,0-.2,0-.4-.08-.6q11.17-1.54,22.36-2.93a1509.61,1509.61,0,0,1,173.15-11.21l-1.59-.48c-11.89-3.49-23.91-6.8-36-9.79,2.35-1.1,4.65-2.32,6.94-3.55,3.26-1.75,6.5-3.52,9.88-5a4,4,0,0,0,2.56-3c3,.81,6,1.64,9,2.47,22,6.2,43.83,13.19,65.4,20.21C2151.74,1698.21,2150.53,1711.46,2141.24,1711.2Z"/><path class="cls-1" d="M2263.57,1514.58c-25.65,13.12-51.73,25.44-77.64,38q-13.89,6.75-27.8,13.44-8.79,4.23-17.6,8.43-45.93,21.94-92,43.54c-21.52,10.14-42.83,20-65.74,26.65-10.37,3-20.64,6.11-30.84,9.42-11.64,3.77-23.19,7.78-34.71,12.16-3.21,1.21-4.57-3.45-2.17-5.14a93.33,93.33,0,0,1,10.51-6.41c18.83-9.91,40.81-14.33,60.59-21.51,22.5-8.17,43.7-19.48,65-30.23q34.14-17.21,68.32-34.35,28.44-14.25,57-28.4c-22.86,7.78-45.61,15.88-68.42,23.8L2059.31,1581c-16.3,5.66-32.32,10.9-49.51,12.8-2.42.27-3-3.19-1.17-4.31,12.9-8.1,26.94-13.6,41.21-18.66l5.57-2,7.07-2.46c64.79-22.59,129.28-46.88,195.44-65.18C2265.83,1499,2271,1510.76,2263.57,1514.58Z"/><path class="cls-1" d="M2214.82,1336.18q-14.91,27.51-30.93,54.4c-19,31.86-39.15,63.14-60.75,93.32q-5.85,8.16-11.79,16.23h0q-10.23,13.88-20.75,27.5h0l-.79,1c-10.8,13.95-21.42,28.19-34.4,40.15-.52.5-1,1-1.58,1.45a3.47,3.47,0,0,1-4,.51,3.22,3.22,0,0,1-1.4-4.67c10.59-17.84,24.28-33.73,36.66-50.36q44.55-59.91,83.35-123.83c-23,27.73-46.09,55.35-68.95,83.18-12.06,14.67-24.24,29.25-36.31,43.92-6,7.33-12.1,14.59-18.37,21.71s-13.07,13.6-19.85,20.24c-2.21,2.17-6-.65-4.32-3.33,5.87-9.44,11.75-18.62,18.36-27.56,6.14-8.32,12.67-16.34,19.13-24.42q24.87-31.1,50.21-61.78,11.34-13.76,22.73-27.44,36.74-44.1,73.92-87.84C2209.78,1323,2218.05,1330.21,2214.82,1336.18Z"/><path class="cls-1" d="M2107.6,1433.42l.16-.39c-.19.8-.38,1.61-.56,2.42-.15.62-.3,1.25-.44,1.88a5.8,5.8,0,0,1-.45,1.29,8.73,8.73,0,0,1-3.22,3.49,8.1,8.1,0,0,1-6.17.8,6.92,6.92,0,0,1-2.46-1.16,8.6,8.6,0,0,1-2.32-2.51,8.44,8.44,0,0,1-.8-6.17c.28-1.24.52-2.51.88-3.73,0,0,0,0,0-.06a7.73,7.73,0,0,1,.74-2l.06-.12c0-.09.08-.18.12-.27l0,.13a9.16,9.16,0,0,1,1.28-1.77,8.09,8.09,0,0,1,5.66-2.34,7.45,7.45,0,0,1,3.51.83,7.88,7.88,0,0,1,4.49,7.17A7.93,7.93,0,0,1,2107.6,1433.42Z"/><path class="cls-1" d="M2166,1217.32c0-8.36.21-16.72.25-25.07-3.49-1.44-7.72-.82-9.63,3.28-.58,1.25-1.12,2.5-1.63,3.76h0a94.44,94.44,0,0,0-4,12.52c-.32,1.29-.62,2.58-.89,3.88q-1.92,6.13-3.8,12.28a7.14,7.14,0,0,0,.89,6.49c-.27,2.36-.52,4.72-.77,7.09-1.68,16-3.38,32-5.35,48-2.74,22.22-6,44.41-10.53,66.34q-3,14.61-6.74,29a426.4,426.4,0,0,1-16.54,50.51l-.48,1.2a5.51,5.51,0,0,0-.41,2,7.87,7.87,0,0,0,2,5.26,8.33,8.33,0,0,0,4,2.61c4.57,1.26,8.22-1.56,9.84-5.58q4.89-12.12,8.94-24.47,4.9-14.88,8.75-30c3.66-14.31,6.71-28.77,9.31-43.34h0c2.38-13.3,4.39-26.68,6.17-40.08.59-4.43,1.15-8.84,1.69-13.27h0c1.41-11.43,2.68-22.87,3.9-34.29,1.13-10.59,1.67-21.76,3.65-32.5.5-1.63,1-3.25,1.53-4.88A2.18,2.18,0,0,1,2166,1217.32Z"/><path class="cls-1" d="M2215.63,1225.12c-7.47,12.72-13.74,26.15-20.41,39.31s-13,26.51-18.88,40c-11.76,26.87-21.75,54.51-34.26,81a1.67,1.67,0,0,1-2.25.93,2.36,2.36,0,0,1-1.52-2.52,267,267,0,0,1,10.83-40.82h0c5.06-14.71,11.13-29.12,17.48-43.21q5.73-12.73,11.93-25.26-5.36,6.86-10.77,13.66c-3.71,4.66-7.7,10.48-12.47,14.73a26.68,26.68,0,0,1-5.25,3.74,1.39,1.39,0,0,1-2-1.55c1.45-5.49,5.18-10.67,9-15.46h0c1.66-2.1,3.32-4.12,4.8-6.07q7.68-10.09,15.28-20.27c10.51-14.1,21.14-28.13,31.51-42.34C2211.62,1216.86,2218.34,1220.5,2215.63,1225.12Z"/><path class="cls-1" d="M2236,1429.13c-27.41,16.51-54.13,34.31-80.34,52.67-13,9.09-25.93,18.22-38.66,27.65-8.64,6.4-17.47,12.36-26.42,18.19h0c-4.48,2.92-9,5.81-13.5,8.71-2,1.3-4.1-1.6-2.5-3.24,11.23-11.43,22.64-22.21,35.42-32l1.33-1h0c12.41-9.45,25-18.71,37.87-27.53,15.61-10.69,31.53-20.83,47.69-30.58-3.8,1-7.61,1.88-11.41,2.86a216.11,216.11,0,0,0-25.06,7.63c-8.45,3.31-15.08,8.52-22.79,13a.63.63,0,0,1-.85-.86c4.09-6.91,12.15-11.92,19-15.75a119.59,119.59,0,0,1,23.51-9.61c17.62-5.32,35.93-9,52.34-17.57C2236.57,1419.17,2240.75,1426.27,2236,1429.13Z"/><path class="cls-1" d="M1934.57,1788.83q-17.62-17-35.27-33.94l-17.63-17c-3.34-3.2-6.6-6.8-10-10.17-1.29-1.28-2.59-2.52-3.92-3.7h0c-5.45-.08-8.11-3.63-8.45-7.52,2.25-.42,4.45-1.11,6.86-1.64a46,46,0,0,1,9.17-.86c.64.22,1.29.44,1.92.67,2.16.8,4.21,1.82,6.3,2.78l.31.31,3.48,3.35c2.84,2.72,5.67,5.46,8.51,8.19l20,19.28a286.84,286.84,0,0,0-22.69-35.18,2.07,2.07,0,0,0-.1-.33l.12,0c3.62-.54,7.23-1.16,10.89-1.35,2.46-.12,4.9-.19,7.33-.31q3.49,4.92,6.77,10a296.31,296.31,0,0,1,29.78,59.66C1950.83,1788.9,1940,1794,1934.57,1788.83Z"/><path class="cls-1" d="M2120.35,1652.71c-10.47,5.65-20.84,11.6-31.49,16.94-3.47,1.75-7.12,3.76-10.89,5.63-6.45,3.21-13.23,6-20,6.22a1.78,1.78,0,0,1-1.38-.66,1.7,1.7,0,0,1-.19-2.07,41.13,41.13,0,0,1,10.7-10l-2.31.63c-5,1.34-10,2.73-15,3.83a101,101,0,0,1-10.91,1.85c-6.66.73-11.51-1.28-13.31-7.72a.12.12,0,0,1,.22-.09c2.49,4.14,8.47.48,11.37-.75.85-.36,1.7-.71,2.56-1,2.66-1.06,5.36-2,8-3,7.34-2.58,14.92-4.57,22.37-6.86,15.21-4.67,30.5-9.09,45.69-13.87C2122.25,1639.76,2126.26,1649.52,2120.35,1652.71Z"/><path class="cls-1" d="M1402.7,1911.1a133.64,133.64,0,0,0-13.79,10.08c-3.32,2.81-7.17,5.25-10.44,8.18a125.08,125.08,0,0,0-16.38,13.85c-8.31,8.06-16.39,16.38-24.38,24.78h0l-6.79,7.19q-2.78,3-5.52,5.92-14,15.08-27.52,30.61-14.76,17-28.92,34.43c-2.74,3.37-8.51,2.81-11.32,0-3.2-3.21-2.74-7.75-.17-11.09a2,2,0,0,1,.17-.23c1.71-2.1,3.42-4.2,5.15-6.3s3.44-4.18,5.18-6.26q5.19-6.26,10.48-12.43,2-2.4,4.11-4.79c.78-.92,1.57-1.84,2.37-2.75q4.74-5.47,9.54-10.88,2.68-3,5.39-6c1.83-2.05,3.68-4.09,5.53-6.12,2-2.19,4-4.36,6-6.53q2.3-2.49,4.6-5,3.12-3.35,6.26-6.67c7.84-8.28,15.7-16.61,23.82-24.63q4.2-4.15,8.51-8.18l0,0c1.62-1.5,3.26-3,4.94-4.43a110.4,110.4,0,0,1,12.26-9.23l0,0,1.34-.84a66.85,66.85,0,0,1,20-8.41C1398,1904.21,1401.57,1907.34,1402.7,1911.1Z"/><path class="cls-1" d="M1414.3,1973.35c-3.9,2-7.55,4.68-11.36,6.83-4.91,2.78-9.88,5.44-14.88,8q-6.18,3.21-12.43,6.32-24.3,12.15-49.3,22.83-13.35,5.73-26.92,10.81c-11.68,4.38-23.31,9.22-31.4,19.12-6.53,8-17.78-3.41-11.32-11.32.25-.31.51-.62.77-.92,9.79-11.38,23.94-17.15,37.7-22.31l2.71-1c18.5-7.06,36.58-15.13,54.48-23.63,10.44-5,20.81-10.07,31-15.46,5.37-2.84,10.55-6.18,15.82-9.26,2.31-1.35,4.65-2.65,7-3.84C1415.41,1954.94,1423.51,1968.74,1414.3,1973.35Z"/><path class="cls-1" d="M1973.5,2130.26a205.66,205.66,0,0,0-53-31.5c-35.8-14.87-74.4-21.51-111.2-33.35a222.26,222.26,0,0,1-52.27-24.68c-7.62-4.93-16.21-10.48-22.24-17.34-2.25-2.56-6.11-10.14-2.52-12.48a5,5,0,0,1,2.58-.7c.6,0,1.05.88.53,1.28a2.77,2.77,0,0,0-.39.37c-2.69,3.23,8.2,9.54,9.88,10.71a135.56,135.56,0,0,0,12.06,7.58,160.81,160.81,0,0,0,27.23,12.27c34.61,11.63,70.42,18.28,105.58,27.87,19.3,5.26,39.42,11.79,57.45,21.6a273.28,273.28,0,0,0-34-36.4c-22.13-19.51-49.28-32.17-77.94-38.74a2.38,2.38,0,0,1-2-2.07,3.15,3.15,0,0,1,2.75-3.45,94.88,94.88,0,0,1,11.32-.51h0a67,67,0,0,1,12,1.26c7.41,1.47,14.67,4.45,21.55,7.49,14.09,6.22,26.93,15.12,38.59,25.11,25.54,21.89,43,50,63.76,76C1988.69,2127.45,1980.37,2135.94,1973.5,2130.26Z"/><path class="cls-1" d="M2401.43,1677.67c-3.95,20.34-8,40.74-14.08,60.54-1.93,6.34-4.08,12.61-6.5,18.8q-.9,2.34-1.86,4.65a176.48,176.48,0,0,1-18.52,33.7,111.91,111.91,0,0,1-11.14,13.44c-2.29,2.37-4.75,4.6-7.25,6.75a24,24,0,0,1-3.57,2.45h0c-1.24.74-2.51,1.44-3.73,2.28-.93.64-1.79-.72-1.13-1.47s1.31-1.6,1.91-2.44c1.35-1.86,2.59-3.8,4.09-5.6,2.12-2.54,4.12-5.19,6.11-7.84,3.45-4.61,6.66-9.45,9.73-14.32a205.53,205.53,0,0,0,16.56-33.15c6.81-16.89,11.65-34.47,15.82-52.21-11,23-20.24,47.08-35.16,68-8.54,12-18.6,23.19-30.69,31.74-2,1.42-4.06,2.76-6.17,4a95.87,95.87,0,0,1-13.59,6.72c-1.38.55-2.79,1-4.23,1.48a5,5,0,0,0-2.52-1.81,45,45,0,0,0-16.65-2.22l-.38,0a3.07,3.07,0,0,1,1.24-.83c3.37-1.24,6.2-3.46,9.51-4.84s6.53-2.42,9.73-3.77l1.29-.55a91.7,91.7,0,0,0,16.69-9.89,126.27,126.27,0,0,0,21.52-20.06c2.75-3.2,5.35-6.53,7.8-10,2.9-4,5.64-8.21,8.26-12.44,14.74-23.82,25.75-50.06,39.87-74.2C2396.7,1670.76,2402.23,1673.54,2401.43,1677.67Z"/><path class="cls-1" d="M1928.2,1424.27c-12.4,13.19-32.92,14.47-47.8,5-7.86-5-14.26-12.07-23.24-15.23-9.27-3.26-20-3.19-29.55-1.23-9.72,2-18.44,6.85-26.51,12.5a164.3,164.3,0,0,0-13.7,10.85c-3.14,2.73-5.74,5-9.62,6.66-.56.23-.91-.49-.71-.92,3.86-8.11,12.89-14.33,19.87-19.7a110.73,110.73,0,0,1,23.59-13.82c14.6-6.36,30.71-7.59,45.39-.77,7.4,3.44,13.33,9.18,20.21,13.46a28.15,28.15,0,0,0,22.58,3.57c15.21-4.12,24.38-22,17.72-36.64-7.54-16.61-31.06-9.89-42.79-2.38-1.43.92-3.42-.95-2.4-2.39,10.94-15.49,37.57-21.78,50.63-5.16C1942.47,1391.53,1939.55,1412.21,1928.2,1424.27Z"/><path class="cls-1" d="M1835.82,1065.44c10.73-7.86,25.77-9.92,37.43-2.93s18.17,20,32.78,21.4c25.24,2.37,51.62-36.27,28.69-54.91a21.65,21.65,0,0,0-19.76-4.31c-5.79,1.7-12.35,6.79-12.51,13.31a1.89,1.89,0,0,0,2.82,1.62c6-3.46,11.67-8.39,19.16-5.35,8,3.23,9.54,11.66,7.29,19.16-3.58,12-17.16,24.75-30.38,19.39-6.41-2.6-11.14-8.2-16.35-12.51-5.44-4.51-11.1-7.82-18.18-8.79-12.32-1.69-24.75,2.72-31.51,13.41-.19.3.21.74.52.51Z"/><path class="cls-1" d="M1781.61,1554c-5.76,2.21-13.47,2.32-19.53,1.63-6.65-.76-12.41-3.9-17.83-7.65-5.8-4-11.34-9-18.29-10.89-8.26-2.3-19.56,1.26-19.13,11.51,0,.28-.45.35-.49.07-1.1-7.3,4.84-13.78,11.8-15.28,10-2.18,19.85,5.07,27.63,10.32,5.54,3.73,11.19,7,18,7.48,5.37.35,14.44.57,18.69-3.14s4.24-11-.24-14.38-10.08-1.4-14.28,1.46c-.68.47-1.79-.32-1.46-1.13,3.4-8.3,15.84-8.1,21.14-1.91C1793.68,1539.18,1789.94,1550.81,1781.61,1554Z"/><path class="cls-3" d="M2143.94,1089.94q1.14,5.5,2.17,11a522.62,522.62,0,0,1,8.25,71.32c.16,3.29.29,6.6.38,9.91.08,2.52.13,5,.17,7.58,0,1.34,0,2.67,0,4,0,1.16,0,2.33,0,3.49,0,.67,0,1.33,0,2h0c0,.25,0,.5,0,.75h0c0,1.7,0,3.39,0,5.08q-.06,4-.19,8-.23,8.53-.76,17-.24,3.86-.54,7.69a520.22,520.22,0,0,1-49.84,185.89q-1.72,3.6-3.51,7.17h0v0q-2.73,5.46-5.59,10.85a525.8,525.8,0,0,1-184.59,198.8c-2,1.26-4,2.5-6,3.73q-3.31,2-6.66,4h0a520.34,520.34,0,0,1-248.24,72q-8.58.29-17.23.28a526.71,526.71,0,0,1-76.25-5.52l-3.68-.55-2.21-.35c-3.26-.5-6.5-1-9.74-1.62l-2.91-.53-2.51-.46c-.41-.08-.82-.15-1.22-.24-1.93-.36-3.85-.74-5.76-1.12l-.65-.14q-2.73-.55-5.44-1.14c-1.22-.25-2.43-.52-3.65-.8-1-.21-2-.43-2.92-.66h0c-1.6-.36-3.2-.73-4.8-1.12-3.2-.76-6.4-1.55-9.58-2.38q-11.92-3.08-23.64-6.71l-1.13-.35c-1.41-.44-2.82-.88-4.22-1.34-1.93-.61-3.86-1.25-5.79-1.89q-2.43-.81-4.84-1.65l-2.64-.92-2.64-.94-3.39-1.23c-1.37-.49-2.73-1-4.09-1.51s-2.72-1-4.08-1.55l-3.76-1.46q-4-1.56-7.88-3.18-2.65-1.1-5.29-2.22t-5.26-2.27q-7.74-3.39-15.35-7l-3-1.43-1.41-.69q-2.64-1.27-5.26-2.61c-1.23-.61-2.47-1.24-3.69-1.87l-1-.5c-1-.52-2.06-1.06-3.08-1.6-1.43-.75-2.86-1.5-4.28-2.27s-2.85-1.53-4.26-2.31-2.83-1.55-4.23-2.35c-.68-.37-1.36-.76-2-1.14l-2.17-1.24-2.67-1.54q-9.3-5.38-18.34-11.16-1.87-1.18-3.74-2.4-2-1.3-4-2.64c-1.2-.79-2.4-1.6-3.6-2.41-.63-.42-1.26-.84-1.88-1.27-.81-.54-1.61-1.09-2.41-1.65q-4.69-3.22-9.31-6.56-2.7-1.93-5.37-3.92l-.76-.56-4.57-3.43-.73-.56c-1.72-1.31-3.44-2.64-5.14-4q-3.45-2.68-6.85-5.45l-1.81-1.47-.19-.16c-1.11-.9-2.22-1.82-3.32-2.74q-3.9-3.23-7.72-6.55c-1-.82-1.91-1.65-2.86-2.49q-4-3.49-7.92-7.09c-1-.89-2-1.78-2.91-2.68q-11.55-10.71-22.45-22.11l0,0-.81-.86c-.89-.93-1.77-1.86-2.65-2.8q-2.6-2.78-5.16-5.58l-2.32-2.57q-1.55-1.71-3.06-3.43c-.79-.9-1.58-1.79-2.36-2.7q-2.3-2.62-4.56-5.29c-1-1.13-1.91-2.26-2.85-3.4-.49-.58-1-1.15-1.44-1.73-1.1-1.33-2.18-2.65-3.26-4-.76-.93-1.51-1.86-2.26-2.8-.52-.65-1-1.32-1.55-2l0,0,0,0q-1.33-1.68-2.64-3.37-3.29-4.2-6.47-8.48-1.92-2.58-3.81-5.19-5.84-8-11.37-16.27h0q-1.63-2.44-3.24-4.9c-1.51-2.29-3-4.6-4.45-6.91q-1.26-2-2.49-4-2.11-3.4-4.17-6.85v0c-.61-1-1.2-2-1.78-3s-1.16-2-1.73-3l-.63-1.08c-.44-.76-.88-1.52-1.31-2.28-.53-.92-1-1.84-1.56-2.77s-1.13-2-1.68-3c-.79-1.41-1.57-2.84-2.34-4.26q-3.48-6.42-6.78-12.94-1.16-2.27-2.28-4.55c-.52-1-1-2.1-1.54-3.15q-1.85-3.77-3.61-7.58c-.46-1-.91-1.94-1.35-2.92q-1.26-2.73-2.49-5.49c-.39-.9-.79-1.79-1.18-2.69q-2.57-5.85-5-11.76c-.5-1.23-1-2.46-1.49-3.69q-4.24-10.59-8-21.41-1.59-4.55-3.09-9.11-1.6-4.87-3.11-9.78c-.42-1.34-.82-2.68-1.22-4q-.75-2.49-1.46-5c-.39-1.36-.78-2.71-1.15-4.07q-.76-2.7-1.48-5.4c-.09-.33-.18-.66-.26-1-.34-1.29-.68-2.59-1-3.89-.18-.69-.36-1.38-.53-2.08-.31-1.18-.6-2.37-.89-3.57-.14-.56-.28-1.13-.41-1.69-.4-1.63-.79-3.27-1.16-4.9-.22-1-.44-1.91-.65-2.86q-.75-3.29-1.44-6.58c-.22-1-.44-2-.64-3.08q-.59-2.82-1.13-5.66c-.2-1-.39-2-.57-3q-.8-4.17-1.5-8.35c-.28-1.61-.54-3.21-.8-4.82q-.78-4.83-1.47-9.69c-.24-1.62-.46-3.24-.67-4.87s-.43-3.25-.63-4.88c-.13-1.07-.26-2.14-.38-3.22a.15.15,0,0,1,0-.07c-.14-1.15-.27-2.3-.39-3.46s-.28-2.53-.41-3.8h0c0-.42-.09-.85-.12-1.27q-.19-1.86-.36-3.72c0-.16,0-.33,0-.5-.1-1-.19-2-.27-3,0-.4-.07-.81-.1-1.22-.11-1.2-.2-2.39-.29-3.6,0-.53-.09-1.07-.12-1.61-.11-1.35-.2-2.71-.29-4.06q-.34-5.05-.58-10.14c-.07-1.49-.13-3-.19-4.48q-.28-7.37-.36-14.8c0-.81,0-1.62,0-2.44,0-1.06,0-2.13,0-3.2,0-2.19,0-4.37,0-6.55,0-1,0-2.06,0-3.09,0-.25,0-.5,0-.76h0c0-1.53.06-3.05.11-4.58,0-1.18.06-2.35.11-3.53,0-1.49.1-3,.17-4.46,0-.78.06-1.56.11-2.34q.17-3.63.39-7.25c.08-1.31.16-2.62.26-3.92a1.09,1.09,0,0,1,0-.18l.15-2.15c.11-1.52.23-3,.36-4.57,0-.67.11-1.35.17-2a1.64,1.64,0,0,1,0-.22c.07-.92.15-1.83.24-2.75a1,1,0,0,1,0-.16c.08-1,.18-2,.28-2.94q.66-7,1.54-13.9c.08-.68.17-1.35.25-2,.41-3.17.84-6.32,1.31-9.47.26-1.79.54-3.58.82-5.36.33-2.12.67-4.23,1-6.33.24-1.45.5-2.9.76-4.35.31-1.77.64-3.55,1-5.31s.68-3.54,1-5.3.69-3.36,1-5q1.47-7,3.15-14c.24-1,.5-2.09.75-3.13q3.18-12.9,7-25.54l.48-1.58c.33-1.1.67-2.19,1-3.28q1.47-4.73,3-9.42c.56-1.68,1.12-3.35,1.7-5q1.62-4.69,3.32-9.34c.37-1,.76-2.06,1.15-3.09h0c.37-1,.75-2,1.14-3q.87-2.3,1.76-4.56c.42-1.09.85-2.18,1.29-3.26q2.13-5.36,4.39-10.65c.47-1.14,1-2.27,1.45-3.4s1.08-2.48,1.63-3.72c.29-.66.58-1.31.88-2,1-2.3,2.07-4.59,3.13-6.87.5-1.09,1-2.17,1.53-3.25s1.06-2.24,1.6-3.35,1.11-2.31,1.68-3.46c.68-1.38,1.36-2.76,2.06-4.14q3.42-6.83,7-13.52c.78-1.46,1.58-2.91,2.38-4.36s1.74-3.14,2.62-4.7l2.25-3.93q2.65-4.6,5.4-9.13c.73-1.22,1.46-2.42,2.21-3.63q8.63-14,18.1-27.43c2.22-3.16,4.49-6.29,6.78-9.39"/><path class="cls-1" d="M2075.08,1332.31c-9.78,28.52-40.57,45.59-69.87,44.34-17.93-.77-34.28-8.37-50.49-15.32-15.71-6.73-31.74-11.49-48.91-12.1a134.58,134.58,0,0,0-47.1,6.56c-15.36,5.07-28.92,13.26-43.13,20.69-.57.29-1.35-.34-.94-.94,8.78-13,22.82-21.83,37.07-27.81a134.16,134.16,0,0,1,47.94-10.66,130.63,130.63,0,0,1,43.5,6.13c16,5.16,30.9,13.34,47.21,17.53,25.49,6.57,55.5-2.44,68.27-26.79,10.63-20.25,3.79-50.53-18.05-60.4-20.29-9.17-49.26,3.11-57.79,23.46-1.59,3.79-7.1,2.47-6.27-1.73,6.13-30.82,42-47.27,70.2-34.68C2072.88,1272.25,2084.08,1306.09,2075.08,1332.31Z"/><path class="cls-4" d="M1874.75,1226.63c0,145.84-118.23,264.06-264.07,264.06s-264.07-118.22-264.07-264.06,118.23-264.07,264.07-264.07S1874.75,1080.78,1874.75,1226.63Z"/><circle class="cls-5" cx="1658.57" cy="1247" r="207.36"/><path class="cls-1" d="M2191.21,1117.72l10.85,7.22"/><path class="cls-1" d="M2189,1121.58l10.84,7.21a4.5,4.5,0,0,0,6.11-1.6,4.55,4.55,0,0,0-1.6-6.11l-10.85-7.22a4.47,4.47,0,1,0-4.5,7.72Z"/><path class="cls-1" d="M2186.81,1120.27c3.3,1.88,6.83,3.59,10,5.71a33.36,33.36,0,0,1,3.62,3.21c.41.36,3.81,3.11,2.71,1.66l-.45-3.44-.11.63,2.06-2.67c1.3-.74,1.53,0-.1-.5-.66-.21-1.29-.39-1.93-.66a34.9,34.9,0,0,1-4.62-2.68,32.53,32.53,0,0,0-9.32-4.41c-4.11-1-7.82,4.38-4.35,7.46,2.93,2.6,5.77,5.58,9,7.74,1.58,1,3.38,1.41,5.05,2.25a20.65,20.65,0,0,1,4.71,3.73l3.15-7.62c-2.52-.24-4.67-3.3-6.47-4.78a14.58,14.58,0,0,0-6.84-3.41c-3.28-.57-6.42,2-5.49,5.5,1.56,5.9,8.59,8,13.45,10.51,5.1,2.61,9.63-5.09,4.5-7.72l-5.65-2.89c-.83-.43-3.42-1.24-3.69-2.28l-5.49,5.5c3.2.56,5.08,3.25,7.51,5.19a14.62,14.62,0,0,0,8.17,3.31c3.92.38,5.8-5.1,3.16-7.62a28.92,28.92,0,0,0-9.27-6.28c-3.69-1.5-6.58-4.82-9.53-7.44l-4.35,7.46c4.42,1.11,7.81,4.29,11.87,6.22,3.27,1.56,8.85,3.58,11.89.44a5.41,5.41,0,0,0,.8-6.05c-1.07-2-3.45-2.9-5.07-4.39-4.29-3.94-9.38-6.5-14.44-9.39s-9.5,4.85-4.51,7.71Z"/><path class="cls-1" d="M1234.16,1800.87l3.07,4.09"/><path class="cls-6" d="M1234.13,1800.91a7.78,7.78,0,0,1,1.54,2.35,6.26,6.26,0,0,0,1.18,2.07.53.53,0,0,0,.83-.64,6.07,6.07,0,0,0-1.65-1.7,7.79,7.79,0,0,1-1.82-2.14c0-.07-.13,0-.08.06Z"/><path class="cls-1" d="M1218.5,1811.86l-6.77-2.89c-3.89-1.67-7.76-3.39-11.53-5.32h0q-1.8-.93-3.57-1.92c-56.71-32-107.27-74.35-158.46-114.3-54.82-42.8-109.48-85.83-164.66-128.17-46-35.31-94.58-77.17-101.93-138.41-3-24.57,1.43-60.38,25.7-73.58,12.23-6.66,27.55-7.16,41.11-5.65a115.79,115.79,0,0,1,38.09,11.22c25.18,12.3,45.35,32.86,59,57.17a187.61,187.61,0,0,1,16.34,39.45c4,13.55,5.39,27.78,6.17,41.84l.06,1.16a1.55,1.55,0,0,1-.15.79,1.67,1.67,0,0,1-.75.8,2.14,2.14,0,0,1-1.23.29,1.77,1.77,0,0,1-1.25-.51,1.56,1.56,0,0,1-.42-.86l-.06-.33a322.12,322.12,0,0,0-11.46-45,170.91,170.91,0,0,0-20.26-42.52c-16.44-24.61-41.09-44.18-69.93-51.85-12.83-3.41-27-4.71-40-1.78-14.52,3.26-22.89,13.46-27.37,27.18-8.53,26.15-3.56,54.59,7.92,79,12,25.46,31.09,46.44,51.94,65,22.87,20.35,47.42,38.87,71.49,57.77q77.22,60.64,154.7,121c24,18.76,48,37.54,72.81,55.26,12.52,8.95,25.21,17.69,38.16,26q15.33,9.85,30.56,19.79h0l1.9,1.23h0l6.29,4.08C1223.49,1809.48,1221.23,1813,1218.5,1811.86Z"/><path class="cls-1" d="M511.74,1484.88c-10.19-11.9-21.63-22.25-30.25-35.55-8.31-12.84-14.69-26.73-18-41.71-7.22-32.69,3.61-66.77,16.77-96.62,13.4-30.37,33.39-56.08,63.45-71.27,31-15.65,66.46-23.51,101-25a294.1,294.1,0,0,1,115.63,18.8c1,.36,1.64-1.23.7-1.67-65.91-31-145.34-30.95-212-2-16.25,7-31.28,16.52-43.62,29.32-11.52,12-20.64,26.08-27.92,41a286.94,286.94,0,0,0-17.86,47.5c-4.88,17.11-7.33,34.46-4.93,52.19a123.11,123.11,0,0,0,18.9,50.54c9.18,14,21.95,28.72,37.75,35.18.43.18.65-.42.41-.7Z"/><path class="cls-1" d="M996.38,1452.2c-3.15,22.76-10,48.64-24.67,67.57-1.24,1.61-2.55,3.17-3.91,4.67l-.07.08a.63.63,0,0,1-.91.08l-.1-.1a.82.82,0,0,1-.15-.85l.18-.39c.13-.31.27-.63.42-.94,1.24-2.81,2.53-5.59,3.82-8.37l.18-.39c4.64-10,9.29-20,12.63-30.56a182.31,182.31,0,0,0,7.86-42.27c7.21-104.9-71.28-200.29-163.56-247.16l-1.79-.91a1,1,0,0,1,.83-1.89q3.63,1.15,7.17,2.49c28.08,10.54,52,29,73.7,49,39,36,70.59,81.41,83.63,132.47A202.12,202.12,0,0,1,996.38,1452.2Z"/><path class="cls-1" d="M982.21,1230.51q-6.09-3.94-12.14-7.91c-20.52-12.11-44.16-20.08-67.1-24.92s-45.63-5.43-68.66-4.42q-3.1.13-6.21.31-5.39.3-10.82.68c-1,.07-1.18-1.5-.23-1.73,27.76-6.71,58.35-4.49,86.05,1.53a238.88,238.88,0,0,1,41.69,13.16q2.26.94,4.5,2c-11.63-7.34-23.45-14.37-35.79-20.64a436.23,436.23,0,0,0-135.29-42.64,441.5,441.5,0,0,0-71.38-4.16c-10.88.21-21.71.92-32.54,1.9l-1.95.17c-9,.83-18.81,1.55-28,3.61,1.24-.77,2.48-1.56,3.67-2.39a16.92,16.92,0,0,0,5.81-4.26c6.37-1.31,12.88-2.11,19.33-2.92,3.51-.44,7-.82,10.57-1.15,9.87-.9,19.8-1.37,29.68-1.51a432.25,432.25,0,0,1,144.08,23.11,438.06,438.06,0,0,1,66.38,28.79c21.32,11.45,42.46,24.47,60.2,41C985.34,1229.27,983.63,1231.54,982.21,1230.51Z"/><path class="cls-1" d="M972.31,1514.36a.61.61,0,0,1-.09.3c-.28.54-.56,1.09-.85,1.63-.14.28-.29.55-.43.81-1.33,2.53-2.68,5-4.12,7.5q-.84,1.47-1.74,2.91c-.06.1-.23,0-.19-.08-.5.78-1,1.55-1.52,2.31l-.39.58a129.47,129.47,0,0,1-8,10.68c-.9,1.08-2.51-.31-1.88-1.45,12.45-22.59,15.64-47.74,13.34-72.89-3.13,15.69-6.57,31.22-12.71,46.13a1.31,1.31,0,0,1-2.52-.69,116.93,116.93,0,0,0,3-19.46,142.94,142.94,0,0,0,0-20.59c0-.36.57-.44.63-.09a110.17,110.17,0,0,1,1.25,19.4c0,1,0,2-.1,3-.07,1.53-.17,3.05-.31,4.57q.79-2.42,1.54-4.86c.18-.58.36-1.15.53-1.73.1-.34.2-.68.31-1,3.42-11.46,6.18-23.13,7.2-35,.15-1.75,2.72-2.3,3.2-.43,6.2,24.16,2.28,49.9-7.38,72.7-.25.6-.5,1.2-.77,1.79.65-.88,1.28-1.76,1.9-2.65a163,163,0,0,0,8.74-13.8.77.77,0,0,1,.31-.31.83.83,0,0,1,1.13.55A.69.69,0,0,1,972.31,1514.36Z"/><path class="cls-1" d="M827.08,1570.2c-5-3.59-10.64-6.28-15.84-9.52s-10.38-6.7-15.35-10.35a231.8,231.8,0,0,1-28.64-24.83c-17.77-18.15-32.74-39.49-42.71-62.9a196.52,196.52,0,0,1-12.33-40.94c-.05-.27-.45-.16-.41.11,8.12,50.25,35.87,98.54,77.16,128.75,11,8.07,24.31,17.24,37.82,20.39a.39.39,0,0,0,.3-.71Z"/><path class="cls-1" d="M974.63,1512.37q-.37,1.11-.84,2.19c-.66,1.77-1.31,3.52-2.08,5.21a23.69,23.69,0,0,1-3.67,5.88,47.61,47.61,0,0,1-5.06,4.67l-.54.46,0,0c-1.66,1.84-3.34,3.63-4.92,5.38l-.17.18c-.08.09-.23,0-.17-.13.39-.61.79-1.21,1.2-1.82l.25-.37-.11.07a6.94,6.94,0,0,1-1.53.68.17.17,0,0,1-.12,0,.25.25,0,0,1-.23-.27c.25-2.65,2.28-4.4,4.38-6l1.13-.86c.45-.35.9-.7,1.31-1.05a26.13,26.13,0,0,0,2-1.92q.66-.89,1.29-1.77l.44-.61a73.47,73.47,0,0,0,4.89-7.75,5.06,5.06,0,0,0,.24-.46c.37-.69.71-1.39,1-2.1l.07-.16h0C973.83,1511.28,974.89,1511.59,974.63,1512.37Z"/><path class="cls-1" d="M956.41,1499.25c1.65-1.51,1.69-4.31,1.43-6.35s-3.45-2.09-3.23,0-.4,3.94-.1,5.85c.14.9,1.33,1,1.9.5Z"/><path class="cls-1" d="M1093.67,1123.93s12.78,19,12.52,25.92-11,9.7-11,9.7-8.29-37-7.08-35.62S1093.67,1123.93,1093.67,1123.93Z"/><path class="cls-1" d="M1360.13,1662.49s15.42,11.79,32.1,8.72,14.64,8.85,14.64,8.85-25.23,5.45-46.74-4.42S1360.13,1662.49,1360.13,1662.49Z"/><path class="cls-1" d="M1782.19,1890s-24.51-10.66-30-43,12.68,4.28,12.68,4.28l17.36,38Z"/><path class="cls-1" d="M2058.23,1676.41s-10.32,7.71-18.17,5.09,15.16,4.29,15.16,4.29Z"/><path class="cls-1" d="M1631.55,1913.85s-11.14-20.17-18.08-38C1643,1894,1648,1910.7,1648,1910.7"/><path class="cls-1" d="M1113.83,1389.31s7.94,16.37,6.4,27.09-11.77-17.87-11.77-17.87Z"/></svg>